# xmcd
#
# Track frame offsets:
#	150
#	18583
#	34878
#	56033
#	74928
#	88987
#	100132
#	118938
#	143015
#	164241
#	186912
#	198822
#	211795
#	227453
#	241830
#	264803
#	288671
#	309110
#	328450
#	340642
#
# Disc length: 4794 seconds
#
# Revision: 1
# Processed by: cddbd v1.5PL3 Copyright (c) Steve Scherf et al.
# Submitted via: audiograbber 1.81.03
#
DISCID=2e12b814
DTITLE=Andriano Celentano - Music heritage
DYEAR=1900
DGENRE=Pop
TTITLE0=Soli
TTITLE1=Il tempo Se Me Va
TTITLE2=Attraverso Me
TTITLE3=La Casa Dell'amore
TTITLE4=Svalutatiion
TTITLE5=Meledetta Televisione
TTITLE6=Stivale E Colbaco
TTITLE7=Uh... Uh
TTITLE8=Susanna
TTITLE9=Quel Punto
TTITLE10=L'Ascensore
TTITLE11=Fumo Negli
TTITLE12=L'arcobalena
TTITLE13=Michelle
TTITLE14=Angel
TTITLE15=Je Tebia Liubliu
TTITLE16=Una Rosa Pericolasa
TTITLE17=Pay, Pay, Pay
TTITLE18=Vivo Per Lei (My Prayer)
TTITLE19=Conto Su Di Te
EXTD=
EXTT0=
EXTT1=
EXTT2=
EXTT3=
EXTT4=
EXTT5=
EXTT6=
EXTT7=
EXTT8=
EXTT9=
EXTT10=
EXTT11=
EXTT12=
EXTT13=
EXTT14=
EXTT15=
EXTT16=
EXTT17=
EXTT18=
EXTT19=
PLAYORDER=
